inDegrees=no
num_controls=7
num_derivatives=13
num_iterations=133
num_multipliers=7
num_parameters=0
num_slacks=7
num_states=26
objective=5.577691
objective_accelerations=0.607850
objective_balance=0.004769
objective_effort=0.461403
objective_height=4.477510
objective_ligament=0.026160
solver_duration=1120.381047
status=Solve_Succeeded
success=true
DataType=double
version=3
OpenSimVersion=4.4-2022-07-23-0e9fedc
endheader
time	/jointset/ground_pelvis/pelvis_tilt/value	/jointset/ground_pelvis/pelvis_tx/value	/jointset/ground_pelvis/pelvis_ty/value	/jointset/hip_r/hip_flexion_r/value	/jointset/hip_r/hip_adduction_r/value	/jointset/hip_r/hip_rotation_r/value	/jointset/back/lumbar_extension/value	/jointset/patellofemoral_r/patellar_flexion_r/value	/jointset/knee_r/knee_flexion_r/value	/jointset/knee_r/knee_adduction_r/value	/jointset/knee_r/knee_rotation_r/value	/jointset/ankle_r/ankle_angle_r/value	/jointset/subtalar_r/subtalar_angle_r/value	/jointset/ground_pelvis/pelvis_tilt/speed	/jointset/ground_pelvis/pelvis_tx/speed	/jointset/ground_pelvis/pelvis_ty/speed	/jointset/hip_r/hip_flexion_r/speed	/jointset/hip_r/hip_adduction_r/speed	/jointset/hip_r/hip_rotation_r/speed	/jointset/back/lumbar_extension/speed	/jointset/patellofemoral_r/patellar_flexion_r/speed	/jointset/knee_r/knee_flexion_r/speed	/jointset/knee_r/knee_adduction_r/speed	/jointset/knee_r/knee_rotation_r/speed	/jointset/ankle_r/ankle_angle_r/speed	/jointset/subtalar_r/subtalar_angle_r/speed	/forceset/tau_hip_flexion_r	/forceset/tau_hip_adduction_r	/forceset/tau_hip_rotation_r	/forceset/tau_knee_flexion_r	/forceset/tau_ankle_angle_r	/forceset/tau_subtalar_angle_r	/forceset/tau_lumbar_extension	lambda_cid13_p0	lambda_cid14_p0	lambda_cid14_p1	lambda_cid14_p2	lambda_cid14_p3	lambda_cid14_p4	lambda_cid14_p5	/jointset/ground_pelvis/pelvis_tilt/accel	/jointset/ground_pelvis/pelvis_tx/accel	/jointset/ground_pelvis/pelvis_ty/accel	/jointset/hip_r/hip_flexion_r/accel	/jointset/hip_r/hip_adduction_r/accel	/jointset/hip_r/hip_rotation_r/accel	/jointset/back/lumbar_extension/accel	/jointset/patellofemoral_r/patellar_flexion_r/accel	/jointset/knee_r/knee_flexion_r/accel	/jointset/knee_r/knee_adduction_r/accel	/jointset/knee_r/knee_rotation_r/accel	/jointset/ankle_r/ankle_angle_r/accel	/jointset/subtalar_r/subtalar_angle_r/accel	gamma_cid13_p0	gamma_cid14_p0	gamma_cid14_p1	gamma_cid14_p2	gamma_cid14_p3	gamma_cid14_p4	gamma_cid14_p5
1.5	-0.07708334861550102	0.03193562863556001	0.8171665214427997	0.8049008402625597	-0.2376832264699969	-0.09165304881211346	-0.625827611489297	0.94439174646298	0.944391746462989	0.006959370163370064	0.1745317329774662	0.2997063185698811	0.1171784400915205	0.4431451499107511	0.2226214545934583	0.5067377502151263	-1.996473061227518	0.02818916969796007	-0.3582233885398426	0.8013232318043602	-1.983271345318267	-1.983271345318264	0.275993083531349	2.544460268327124e-05	-0.5218611114245825	-0.14576180628686	-0.1536771928895991	-0.002774340373014422	0.02736613435561942	-0.3153391883465397	0.02454244758353346	-0.009077856737783252	0.2092558756016841	-8.67815338672998	-34.58216835793751	-9.032907790856626	0.760115167948918	-4.486907876885751	-629.9038024049034	63.10154920765923	0.1493908448054432	0.5855056652720559	-0.5190140675887335	-0.9835189667425004	-0.0308309528824538	-0.2101890747952587	1.771110647244079	-1.288917008514691	-1.288917008514683	0.6419663498771994	-0.05675904958375795	-0.5769014208187121	-0.1335083447884877	3.38459262012773e-08	-1.788191002068852e-07	-2.739820840954975e-06	-1.204666499474819e-06	3.855487596076982e-07	7.897691883825751e-08	-1.762031168514614e-06
1.51	-0.0726448346575993	0.03419087305028649	0.8222069315737054	0.7848891086915072	-0.2374032046737864	-0.09524912155615169	-0.617727207548267	0.924496872295158	0.9244968722951693	0.009749164346944755	0.1745318072259884	0.2944595287230745	0.11571401046018	0.4444915365457981	0.2283993207530192	0.5012390701092874	-2.005610452264357	0.02780738269699583	-0.3609908820847048	0.8186462662630329	-1.995432365365597	-1.995432365365661	0.2819407291030989	-2.985976085213381e-06	-0.5274160147319016	-0.1471009915696238	-0.1466964380479638	-0.003847874023115699	0.0270763275764853	-0.3111982727630206	0.02615997694053724	-0.009958495505404936	0.2027592886880248	-9.729853214598338	-33.81049888355593	-9.183881841431006	0.6741020195217026	-4.560956402234351	-625.1523111593476	62.5378006802792	0.1173262920879247	0.5697813341415849	-0.5810647319934511	-0.8394539687995216	-0.04335500484753473	-0.3099454296319258	1.696206324474548	-1.139031186717157	-1.139031186727245	0.5670626391182465	0.02496124638480152	-0.5325867651891326	-0.1311796675979502	2.839033001536112e-08	-1.740351311084193e-07	-2.552020725106063e-06	-1.18942555591375e-06	3.633499472170875e-07	6.357656815208149e-08	-1.587587082306557e-06
1.52	-0.06819484408950068	0.03650306697517697	0.8271892009535701	0.7647938822507553	-0.2371273012338106	-0.09887285242270286	-0.6094569119667917	0.9044885205900872	0.9044885205901021	0.01259761478188822	0.174531766430411	0.2891596294472951	0.1142367777664966	0.4454404719501959	0.2340113566262552	0.4951096000069473	-2.013172035167001	0.02736549845026617	-0.3637550130415768	0.8353015598935424	-2.005966852767929	-2.005966852768059	0.2877243338066229	2.435781474852035e-06	-0.5324829972192461	-0.1483224187554935	-0.1397156832063436	-0.004921407673224608	0.02678652079739368	-0.3070573571795016	0.02777750629754012	-0.0108391342730393	0.1962627017743546	-10.7907358619546	-33.03964166802085	-9.331895850260118	0.5840747778882214	-4.640201292224348	-620.4198161195937	61.98447955680722	0.06990059867560527	0.5523396080070097	-0.6451720668889578	-0.668357339903776	-0.0428504020355472	-0.2095165571972129	1.637562481611395	-0.9636104795149801	-0.9636104795149791	0.6091581762320171	-0.04998858231802362	-0.4793172568238689	-0.1099567254096968	2.36940191126643e-08	-1.747183438416489e-07	-2.451118111203873e-06	-1.216862971561624e-06	3.523263721691011e-07	5.068171286243675e-08	-1.466044438539933e-06
1.53	-0.06373740287068971	0.03887047759511348	0.8321070733734127	0.7446310612258012	-0.2368559787245924	-0.1025242157625994	-0.6010235162547383	0.8843830795560823	0.8843830795560959	0.01550288984804404	0.1745318465848334	0.283811577885151	0.1127481479679213	0.4459790385303974	0.2394349312996406	0.4883652773396865	-2.019117153665236	0.02689285514015241	-0.3665041953627853	0.8512506768903583	-2.014835990520037	-2.014835990520059	0.2933091907305076	1.378691709510262e-05	-0.5370414130549022	-0.1493781398451407	-0.1327096652388554	-0.006155600459542729	0.0263897867993821	-0.3030000343960266	0.02929156274617365	-0.0116322183743507	0.1897291727877755	-11.85125468095601	-32.30965789501263	-9.437056572441669	0.4735245920758036	-4.657561735172578	-615.8768652166376	61.55060979241355	0.03550282880393208	0.5320617139404881	-0.703996365786409	-0.5163633695797197	-0.05075764818972006	-0.3055829302377547	1.554550464782102	-0.8057644406221548	-0.8057644406057377	0.5295676897781366	0.02641074392911941	-0.431147286857366	-0.1001096826669352	1.980444882338807e-08	-1.812104372710547e-07	-2.442544093120072e-06	-1.289646143868998e-06	3.531764867976529e-07	4.044894643160647e-08	-1.400709577367332e-06
1.54	-0.05927664235785592	0.04129106302517077	0.8369545157667544	0.7244170341629034	-0.2365896399190118	-0.1062026636978381	-0.5924344365415041	0.8641975073410501	0.8641975073410544	0.01846329713131956	0.174531983007085	0.2784205334566657	0.1112496149820649	0.4461043307550656	0.2446463186504106	0.4810235947067356	-2.023413242755334	0.02636875772241348	-0.3691719321101944	0.8664383601298005	-2.021993088974681	-2.021993088974592	0.2987507772268455	1.368934979933112e-05	-0.5410815704873948	-0.1503030562117755	-0.1257036472713743	-0.007389793245843599	0.02599305280127415	-0.2989427116125583	0.03080561919481379	-0.01242530247563186	0.1831956438011885	-12.9080756177349	-31.58157961874086	-9.541366106434488	0.3614865493079341	-4.674574532322999	-611.363495388087	61.11898040958986	-0.01275427243104699	0.5099021434838501	-0.7646440600270057	-0.338551458276628	-0.05314122356057772	-0.1932274424373304	1.485275730136658	-0.6212026200219067	-0.6212026200219156	0.5805040907226687	-0.05227832290119444	-0.3756655761912872	-0.0837957808072495	1.760307662671425e-08	-1.870752858410747e-07	-2.449920340233925e-06	-1.355967472129982e-06	3.551733854382388e-07	3.160805609474217e-08	-1.343962210200847e-06
